HIERARCHY
ROOT Hips
{
	OFFSET -0.001795 -0.223333 0.028219
	CHANNELS 6 Xposition Yposition Zposition Zrotation Yrotation Xrotation 
	JOINT LeftUpLeg
	{
		OFFSET 0.069520 -0.091406 -0.006815
		CHANNELS 3 Zrotation Yrotation Xrotation
		JOINT LeftLeg
		{
			OFFSET 0.034277 -0.375199 -0.004496
			CHANNELS 3 Zrotation Yrotation Xrotation
			JOINT LeftFoot
			{
				OFFSET -0.013596 -0.397961 -0.043693
				CHANNELS 3 Zrotation Yrotation Xrotation
				JOINT LeftToe
				{
					OFFSET 0.026358 -0.055791 0.119288
					CHANNELS 3 Zrotation Yrotation Xrotation
					End Site
					{
						OFFSET 0.000000 0.000000 0.000000
					}
				}
			}
		}
	}
	JOINT RightUpLeg
	{
		OFFSET -0.067670 -0.090522 -0.004320
		CHANNELS 3 Zrotation Yrotation Xrotation
		JOINT RightLeg
		{
			OFFSET -0.038290 -0.382569 -0.008850
			CHANNELS 3 Zrotation Yrotation Xrotation
			JOINT RightFoot
			{
				OFFSET 0.015774 -0.398415 -0.042312
				CHANNELS 3 Zrotation Yrotation Xrotation
				JOINT RightToe
				{
					OFFSET -0.025372 -0.048144 0.123348
					CHANNELS 3 Zrotation Yrotation Xrotation
					End Site
					{
						OFFSET 0.000000 0.000000 0.000000
					}
				}
			}
		}
	}
	JOINT Spine
	{
		OFFSET -0.002533 0.108963 -0.026696
		CHANNELS 3 Zrotation Yrotation Xrotation
		JOINT Spine1
		{
			OFFSET 0.005487 0.135180 0.001092
			CHANNELS 3 Zrotation Yrotation Xrotation
			JOINT Spine2
			{
				OFFSET 0.001457 0.052922 0.025425
				CHANNELS 3 Zrotation Yrotation Xrotation
				JOINT Neck
				{
					OFFSET -0.002778 0.213870 -0.042857
					CHANNELS 3 Zrotation Yrotation Xrotation
					JOINT Head
					{
						OFFSET 0.005152 0.064970 0.051349
						CHANNELS 3 Zrotation Yrotation Xrotation
						End Site
						{
							OFFSET 0.000000 0.000000 0.000000
						}
					}
				}
				JOINT LeftShoulder
				{
					OFFSET 0.078845 0.121749 -0.034090
					CHANNELS 3 Zrotation Yrotation Xrotation
					JOINT LeftArm
					{
						OFFSET 0.090977 0.030469 -0.008868
						CHANNELS 3 Zrotation Yrotation Xrotation
						JOINT LeftForeArm
						{
							OFFSET 0.259612 -0.012772 -0.027456
							CHANNELS 3 Zrotation Yrotation Xrotation
							JOINT LeftHand
							{
								OFFSET 0.249234 0.008986 -0.001171
								CHANNELS 3 Zrotation Yrotation Xrotation
								End Site
								{
									OFFSET 0.000000 0.000000 0.000000
								}
							}
						}
					}
				}
				JOINT RightShoulder
				{
					OFFSET -0.081759 0.118833 -0.038615
					CHANNELS 3 Zrotation Yrotation Xrotation
					JOINT RightArm
					{
						OFFSET -0.096012 0.032551 -0.009143
						CHANNELS 3 Zrotation Yrotation Xrotation
						JOINT RightForeArm
						{
							OFFSET -0.253742 -0.013329 -0.021401
							CHANNELS 3 Zrotation Yrotation Xrotation
							JOINT RightHand
							{
								OFFSET -0.255298 0.007772 -0.005559
								CHANNELS 3 Zrotation Yrotation Xrotation
								End Site
								{
									OFFSET 0.000000 0.000000 0.000000
								}
							}
						}
					}
				}
			}
		}
	}
}
MOTION
Frames: 12
Frame Time: 0.050000
-0.005317 0.939904 -0.002218 -3.968897 4.524396 2.348569 8.042711 -0.384700 -7.164124 -0.555982 -0.363955 11.372047 6.394109 14.623015 7.955399 0.000000 0.000000 0.000000 -1.037471 1.176729 -13.133819 -3.939552 1.558302 17.161606 3.527432 5.420885 6.143822 0.000000 0.000000 0.000000 6.412595 0.179468 -3.190120 -0.548843 0.267662 -0.292983 -5.167372 4.566657 5.991930 10.279772 -4.695417 -14.630774 0.000000 0.000000 0.000000 -7.261904 0.962858 -1.747747 -49.789930 -20.766930 2.215723 120.598420 -41.549689 -66.633033 0.000000 0.000000 0.000000 6.011051 -6.789435 -2.820539 59.534890 18.230075 4.301794 -164.640594 50.507571 -131.590204 0.000000 0.000000 0.000000 
-0.005565 0.940359 -0.002333 -4.125490 4.166779 2.705529 8.302825 -0.379147 -7.316829 -0.739056 -0.306827 11.058848 6.544836 14.894183 8.189585 0.000000 0.000000 0.000000 -0.840560 1.214923 -13.294713 -4.227131 1.629616 16.888615 3.877774 6.346530 5.852345 0.000000 0.000000 0.000000 6.323130 0.190970 -3.377423 -0.598508 0.291799 -0.332779 -5.112635 4.296996 5.907163 10.543008 -4.822597 -15.009099 0.000000 0.000000 0.000000 -7.106399 1.684911 -1.957405 -51.611690 -20.619927 2.257732 121.897770 -42.442056 -68.842310 0.000000 0.000000 0.000000 5.683927 -7.077053 -2.945633 61.101981 17.672520 4.220740 -166.199705 50.824865 -135.396624 0.000000 0.000000 0.000000 
-0.005989 0.941150 -0.002479 -4.295131 4.256476 2.878194 8.535192 -0.381660 -7.537963 -0.753340 -0.303669 11.017990 6.468807 14.812559 8.425189 0.000000 0.000000 0.000000 -0.651156 1.229893 -13.262603 -4.350860 1.646362 16.697498 4.023750 6.764861 5.716672 0.000000 0.000000 0.000000 6.245370 0.178104 -3.287915 -0.479020 0.244307 -0.578213 -5.271549 3.921321 5.995629 10.916333 -4.943424 -15.679891 0.000000 0.000000 0.000000 -6.910518 2.189544 -2.088872 -53.232719 -20.905395 2.460728 124.132719 -43.837052 -72.887316 0.000000 0.000000 0.000000 5.726236 -7.857102 -3.289328 62.354751 17.387129 4.208816 -167.089134 51.714970 -138.133183 0.000000 0.000000 0.000000 
-0.006392 0.942044 -0.002630 -4.630765 4.228425 3.017346 8.968686 -0.373896 -7.747647 -0.821674 -0.290406 11.050135 6.449001 14.821417 8.687274 0.000000 0.000000 0.000000 -0.275087 1.278367 -13.391534 -4.311760 1.610485 16.283852 4.190983 6.640621 6.593623 0.000000 0.000000 0.000000 6.177056 0.133635 -2.839675 -0.368116 0.213941 -1.149789 -5.237584 3.598447 6.183185 11.259862 -5.056588 -16.333289 0.000000 0.000000 0.000000 -6.134625 2.621950 -2.070437 -54.935266 -21.852822 2.959518 125.756864 -44.683929 -75.560813 0.000000 0.000000 0.000000 5.330651 -8.554993 -3.561046 63.684176 16.948617 4.120101 -167.288359 52.536096 -139.439339 0.000000 0.000000 0.000000 
-0.006807 0.942882 -0.002861 -4.779381 4.249961 3.153051 9.223459 -0.373003 -8.047665 -0.931976 -0.275592 11.235008 6.399835 14.790214 8.980138 0.000000 0.000000 0.000000 -0.088333 1.298285 -13.413229 -4.292166 1.584234 15.963143 4.237871 6.549133 6.947238 0.000000 0.000000 0.000000 6.069482 0.109378 -2.604287 -0.151303 0.122290 -1.369070 -5.343149 3.353864 6.251728 11.501691 -5.076610 -17.017553 0.000000 0.000000 0.000000 -5.227742 2.631347 -1.878926 -55.936118 -23.159862 3.627970 126.612024 -44.582271 -76.230012 0.000000 0.000000 0.000000 5.460225 -9.161010 -3.832723 64.547463 16.740040 4.083955 -166.769336 53.330586 -139.214029 0.000000 0.000000 0.000000 
-0.007141 0.943791 -0.003062 -4.755209 4.397601 3.335284 9.226838 -0.382051 -8.182997 -0.920367 -0.271838 11.012459 6.276650 14.645331 9.264029 0.000000 0.000000 0.000000 0.098120 1.341726 -13.712258 -4.355827 1.599825 16.027059 3.958368 5.701659 7.395879 0.000000 0.000000 0.000000 5.906490 0.064513 -2.148675 -0.004918 0.076527 -1.882805 -5.354739 2.989574 6.447149 11.595028 -4.863654 -18.390546 0.000000 0.000000 0.000000 -4.192526 2.288139 -1.536557 -56.634244 -24.609241 4.370952 127.290453 -43.778194 -75.678748 0.000000 0.000000 0.000000 5.118512 -9.434872 -3.921534 65.233615 16.603605 4.058160 -166.087642 53.953922 -138.570467 0.000000 0.000000 0.000000 
-0.007262 0.944698 -0.003256 -4.865831 4.298373 3.443261 9.393159 -0.375868 -8.191840 -1.000376 -0.246243 10.807942 6.272314 14.679020 9.560536 0.000000 0.000000 0.000000 0.297913 1.360526 -13.690094 -4.333297 1.575871 15.695685 3.874676 5.354238 7.690902 0.000000 0.000000 0.000000 5.783016 0.024970 -1.713137 0.261576 -0.041628 -1.966493 -5.319063 2.811782 6.411020 11.710147 -4.788687 -19.154664 0.000000 0.000000 0.000000 -3.578063 2.210485 -1.383863 -56.720287 -25.711320 4.937067 127.788725 -43.215236 -75.319946 0.000000 0.000000 0.000000 5.081702 -9.311186 -3.874860 65.027760 17.043244 4.250639 -163.962970 54.413561 -135.169984 0.000000 0.000000 0.000000 
-0.007196 0.945641 -0.003368 -4.820858 4.230671 3.623333 9.060730 -0.392159 -8.390113 -0.538804 -0.335796 10.816673 6.271147 14.731328 9.924554 0.000000 0.000000 0.000000 0.319264 1.349421 -13.541471 -4.436641 1.565865 15.115410 3.891823 5.314135 7.828403 0.000000 0.000000 0.000000 5.927743 0.001919 -1.511050 0.154070 0.001999 -1.862592 -5.254941 2.500343 6.333675 11.809674 -4.568490 -20.621712 0.000000 0.000000 0.000000 -3.072920 1.554119 -1.045178 -56.024595 -26.592195 5.330383 127.323437 -41.951627 -72.790508 0.000000 0.000000 0.000000 4.999908 -8.815671 -3.676597 64.723683 18.120249 4.786140 -161.542768 55.106848 -131.698089 0.000000 0.000000 0.000000 
-0.007027 0.946100 -0.003585 -4.715216 3.821602 3.705852 9.008978 -0.380644 -8.105157 -0.739686 -0.269715 10.317505 6.419266 14.971696 10.161773 0.000000 0.000000 0.000000 0.198522 1.336559 -13.476362 -4.357438 1.533924 14.758040 3.919861 5.304639 7.879939 0.000000 0.000000 0.000000 5.989364 -0.021393 -1.259379 0.099635 0.024063 -1.856037 -5.223456 2.549067 6.434593 11.588425 -4.376586 -21.042559 0.000000 0.000000 0.000000 -2.385953 0.734780 -0.635251 -54.960609 -27.759117 5.756630 126.769289 -40.940590 -70.618072 0.000000 0.000000 0.000000 4.912443 -8.132390 -3.394261 63.429475 19.672236 5.442642 -157.389239 54.914716 -124.375254 0.000000 0.000000 0.000000 
-0.006949 0.946844 -0.004122 -4.553896 3.398649 3.764174 8.508475 -0.385542 -7.903181 -0.273916 -0.339338 9.979194 6.575668 15.244322 10.550375 0.000000 0.000000 0.000000 0.212701 1.358273 -13.645501 -4.696608 1.624820 14.731674 4.107695 5.495300 8.193459 0.000000 0.000000 0.000000 6.082003 -0.049095 -0.964805 0.114569 -0.000748 -1.454774 -5.385638 2.474607 6.159059 11.529076 -4.115627 -22.239987 0.000000 0.000000 0.000000 -1.786312 -0.318017 -0.170949 -53.615682 -29.209239 6.304467 125.551478 -39.470725 -67.079660 0.000000 0.000000 0.000000 4.561662 -6.921877 -2.881020 61.883088 22.149215 6.587971 -152.245397 54.476681 -115.601341 0.000000 0.000000 0.000000 
-0.007312 0.947557 -0.005274 -4.439354 2.786739 3.677154 8.244863 -0.372764 -7.581952 -0.115726 -0.349287 9.704140 6.808820 15.620063 10.984743 0.000000 0.000000 0.000000 0.355157 1.395426 -13.821201 -4.901700 1.707052 14.961580 4.071954 5.282418 8.317506 0.000000 0.000000 0.000000 6.167626 -0.079937 -0.607145 -0.058199 0.074807 -1.407590 -5.201958 2.747674 6.267842 11.163925 -3.849412 -22.658246 0.000000 0.000000 0.000000 -0.683130 -2.200029 0.620336 -51.716503 -31.344070 6.959135 123.127711 -37.189704 -61.268220 0.000000 0.000000 0.000000 3.862674 -5.171339 -2.126163 59.556580 25.335339 7.890081 -145.867358 53.584677 -104.565222 0.000000 0.000000 0.000000 
-0.008163 0.948042 -0.006953 -4.438873 2.027947 3.697125 8.184971 -0.354381 -7.394105 -0.062307 -0.338814 9.453773 7.132546 16.114162 11.407087 0.000000 0.000000 0.000000 0.750998 1.457595 -13.978726 -5.413819 1.859310 15.065465 4.162103 5.553618 8.026151 0.000000 0.000000 0.000000 6.587805 -0.129134 -0.152524 0.005734 0.043272 -1.427817 -5.377906 3.070064 6.375046 10.756037 -3.414358 -23.810737 0.000000 0.000000 0.000000 0.491366 -3.534139 1.198358 -50.012795 -33.389034 7.527698 121.149766 -34.479008 -55.480687 0.000000 0.000000 0.000000 3.017832 -3.464392 -1.403078 57.291862 29.803240 9.806170 -139.697086 52.170161 -93.758547 0.000000 0.000000 0.000000 
